<?xml version="1.0" standalone="no"?>
<!DOCTYPE svg PUBLIC "-//W3C//DTD SVG 20010904//EN"
 "http://www.w3.org/TR/2001/REC-SVG-20010904/DTD/svg10.dtd">
<svg version="1.0" xmlns="http://www.w3.org/2000/svg"
 width="600.000000pt" height="550.000000pt" viewBox="0 0 600.000000 550.000000"
 preserveAspectRatio="xMidYMid meet">

<g transform="translate(0.000000,550.000000) scale(0.100000,-0.100000)"
fill="#000000" stroke="none">
<path d="M0 2750 l0 -2750 998 0 c977 0 996 0 967 19 -66 41 -74 58 -67 140
l7 75 45 26 c42 24 45 29 48 71 2 41 46 628 57 764 20 251 37 465 55 675 11
135 20 250 20 257 0 12 108 78 115 71 3 -2 0 -81 -5 -174 -40 -694 -90 -1469
-105 -1609 -4 -38 -2 -42 30 -60 23 -12 35 -25 35 -40 0 -20 2 -21 86 -13 47
5 394 7 770 6 630 -3 684 -2 684 14 0 9 15 25 34 36 31 19 34 24 30 59 -8 76
-59 823 -74 1093 -6 102 -17 297 -25 435 -8 137 -12 251 -10 253 9 9 115 -61
115 -76 0 -9 9 -123 20 -252 26 -312 108 -1360 112 -1430 3 -54 4 -55 50 -80
l46 -24 4 -76 c5 -83 2 -89 -56 -132 l-39 -28 1026 0 1027 0 0 2750 0 2750
-3000 0 -3000 0 0 -2750z"/>
<path d="M2192 124 c-2 -57 -4 -62 -30 -73 -15 -6 -41 -20 -57 -31 -30 -20
-29 -20 865 -20 l895 1 -57 32 -57 32 -4 55 -3 55 -2 -57 -2 -58 -770 0 -769
0 -4 63 -3 62 -2 -61z"/>
</g>
</svg>
