<?xml version="1.0" standalone="no"?>
<!DOCTYPE svg PUBLIC "-//W3C//DTD SVG 20010904//EN"
 "http://www.w3.org/TR/2001/REC-SVG-20010904/DTD/svg10.dtd">
<svg version="1.0" xmlns="http://www.w3.org/2000/svg"
 width="282.000000pt" height="179.000000pt" viewBox="0 0 282.000000 179.000000"
 preserveAspectRatio="xMidYMid meet">

<g transform="translate(0.000000,179.000000) scale(0.100000,-0.100000)"
fill="#000000" stroke="none">
<path d="M300 1681 c0 -12 6 -21 13 -22 6 0 -24 -7 -68 -15 -53 -10 -85 -21
-95 -33 -8 -10 -32 -24 -52 -31 -21 -6 -38 -13 -38 -16 0 -12 61 -2 75 12 9 9
19 14 22 11 3 -4 15 0 27 8 11 8 37 15 58 15 41 0 100 -20 80 -27 -6 -3 -10
-9 -7 -13 3 -5 12 -7 20 -3 8 3 15 0 15 -5 0 -11 70 -35 77 -28 2 2 -12 13
-31 25 -27 17 -39 35 -53 78 -20 58 -43 82 -43 44z"/>
<path d="M2490 1600 c0 -23 8 -25 32 -6 20 15 14 26 -14 26 -11 0 -18 -7 -18
-20z"/>
<path d="M147 1573 c-10 -16 11 -124 28 -143 9 -9 34 -25 56 -35 22 -10 38
-23 36 -29 -6 -18 -82 -19 -100 -2 -19 20 -44 2 -55 -38 -6 -22 -18 -33 -46
-43 -60 -20 -66 -29 -66 -94 0 -48 7 -73 37 -134 29 -59 35 -78 25 -84 -9 -5
-11 -17 -6 -35 6 -24 9 -26 47 -22 26 4 44 1 49 -7 5 -8 8 -4 8 10 0 12 5 25
11 28 6 5 4 12 -8 20 -10 7 -15 17 -11 21 4 4 15 1 24 -7 9 -8 35 -19 58 -26
22 -6 33 -11 24 -12 -11 -1 -18 -9 -18 -23 0 -12 -7 -30 -17 -40 -10 -12 -12
-18 -4 -18 7 0 9 -5 6 -10 -5 -8 -11 -7 -21 1 -11 9 -12 14 -3 19 8 6 8 13 1
26 -10 17 -11 18 -17 2 -4 -9 -13 -14 -21 -11 -8 3 -14 2 -13 -3 4 -21 -2 -26
-16 -14 -13 11 -13 9 0 -23 11 -27 12 -47 5 -95 -6 -33 -9 -69 -8 -80 2 -13
-9 -28 -32 -44 -34 -23 -63 -68 -75 -118 -5 -22 -1 -27 25 -37 18 -7 29 -16
27 -20 -3 -5 -1 -15 5 -23 8 -12 9 -12 4 2 -3 11 0 18 7 18 7 0 25 20 40 45
15 26 40 54 57 63 16 9 37 32 47 50 21 39 27 39 70 6 30 -22 32 -27 18 -40
-16 -16 -19 -72 -9 -136 6 -36 8 -38 46 -38 31 0 40 -4 47 -22 10 -27 4 -39
-10 -18 -6 10 -7 4 -3 -20 4 -19 3 -32 -1 -28 -9 8 -65 -51 -65 -69 0 -13 62
-28 84 -20 11 5 13 43 12 214 l-2 208 -38 85 c-41 92 -43 142 -8 179 38 40 52
62 52 81 0 17 -7 20 -40 20 l-40 0 0 143 c0 78 -4 157 -9 175 -8 25 -6 42 9
75 11 23 20 53 20 66 0 21 -3 23 -27 16 -102 -25 -123 -18 -123 43 0 29 -3 32
-29 32 -16 0 -31 5 -33 12 -3 8 -6 9 -11 1z m53 -44 c0 -5 -4 -8 -9 -5 -5 4
-12 0 -14 -6 -3 -8 -6 -6 -6 5 -1 9 6 17 14 17 8 0 15 -5 15 -11z m-90 -363
c0 -2 -3 -11 -6 -20 -9 -23 -24 -20 -24 4 0 11 7 20 15 20 8 0 15 -2 15 -4z
m16 -146 c8 0 14 -7 14 -17 0 -14 -2 -14 -20 2 -11 10 -20 23 -19 29 0 6 3 6
6 -1 2 -7 11 -13 19 -13z"/>
<path d="M2605 1570 c-3 -5 -16 -10 -28 -10 -12 0 -29 -5 -37 -11 -11 -8 -5
-9 27 -6 30 4 43 1 47 -9 3 -8 12 -14 20 -14 14 0 15 -9 7 -63 0 -5 -5 -5 -11
-2 -5 3 -10 2 -10 -4 0 -25 22 -19 40 11 11 18 20 29 21 23 1 -22 18 32 18 63
1 31 0 32 -43 32 -25 0 -48 -4 -51 -10z m65 -28 c0 -5 -7 -9 -15 -9 -8 0 -12
4 -9 9 3 4 9 8 15 8 5 0 9 -4 9 -8z"/>
<path d="M263 1528 c15 -5 27 -17 28 -26 0 -13 2 -14 6 -3 6 16 -23 41 -46 40
-9 0 -4 -5 12 -11z"/>
<path d="M2521 1466 c10 -9 79 -14 74 -5 -4 5 -22 9 -42 9 -20 0 -34 -2 -32
-4z"/>
<path d="M1244 1436 c-9 -23 0 -51 15 -51 8 0 15 6 17 13 1 7 0 8 -3 2 -2 -5
-9 -10 -14 -10 -14 0 -11 48 4 53 9 4 9 6 -1 6 -7 1 -15 -5 -18 -13z"/>
<path d="M1347 1444 c-4 -4 -7 -19 -7 -33 0 -19 3 -22 9 -12 5 8 7 20 4 28 -3
7 0 13 5 13 6 0 13 -12 15 -27 4 -28 4 -28 3 1 -1 29 -15 43 -29 30z"/>
<path d="M1443 1415 c0 -22 2 -30 4 -17 2 12 2 30 0 40 -3 9 -5 -1 -4 -23z"/>
<path d="M1467 1443 c-2 -5 0 -21 4 -38 7 -29 7 -29 8 8 1 35 -3 46 -12 30z"/>
<path d="M1540 1415 c0 -30 3 -35 23 -34 16 1 18 2 5 6 -11 3 -18 14 -18 28 0
14 7 25 18 28 13 4 11 5 -5 6 -20 1 -23 -4 -23 -34z"/>
<path d="M1645 1439 c-11 -16 -1 -19 13 -3 7 8 8 14 3 14 -5 0 -13 -5 -16 -11z"/>
<path d="M2520 1415 c1 -27 16 -35 43 -22 41 19 40 33 -4 32 -21 0 -39 -4 -39
-10z"/>
<path d="M1670 1401 c0 -8 -7 -11 -17 -6 -15 5 -16 4 -5 -6 9 -10 15 -10 24
-1 6 6 9 15 5 19 -4 3 -7 1 -7 -6z"/>
<path d="M878 1393 c7 -3 16 -2 19 1 4 3 -2 6 -13 5 -11 0 -14 -3 -6 -6z"/>
<path d="M928 1393 c6 -2 18 -2 25 0 6 3 1 5 -13 5 -14 0 -19 -2 -12 -5z"/>
<path d="M1008 1393 c7 -3 16 -2 19 1 4 3 -2 6 -13 5 -11 0 -14 -3 -6 -6z"/>
<path d="M1068 1393 c12 -2 30 -2 40 0 9 3 -1 5 -23 4 -22 0 -30 -2 -17 -4z"/>
<path d="M1138 1393 c7 -3 16 -2 19 1 4 3 -2 6 -13 5 -11 0 -14 -3 -6 -6z"/>
<path d="M1758 1393 c7 -3 16 -2 19 1 4 3 -2 6 -13 5 -11 0 -14 -3 -6 -6z"/>
<path d="M1858 1393 c7 -3 16 -2 19 1 4 3 -2 6 -13 5 -11 0 -14 -3 -6 -6z"/>
<path d="M1908 1393 c6 -2 18 -2 25 0 6 3 1 5 -13 5 -14 0 -19 -2 -12 -5z"/>
<path d="M2018 1393 c7 -3 16 -2 19 1 4 3 -2 6 -13 5 -11 0 -14 -3 -6 -6z"/>
<path d="M942 1373 c37 -2 100 -2 140 0 40 1 10 3 -67 3 -77 0 -110 -1 -73 -3z"/>
<path d="M1828 1373 c39 -2 105 -2 145 0 39 1 7 3 -73 3 -80 0 -112 -2 -72 -3z"/>
<path d="M2185 1371 c-3 -6 -30 -12 -58 -12 -29 -1 -42 -4 -29 -6 23 -4 30
-19 12 -25 -5 -1 13 -3 40 -4 55 -1 58 4 8 16 l-33 8 32 1 c30 1 51 16 40 27
-3 3 -8 1 -12 -5z"/>
<path d="M610 1352 c0 -10 -11 -33 -25 -52 -14 -19 -34 -59 -45 -89 -25 -65
-18 -78 51 -87 l46 -6 7 59 c7 63 27 103 53 103 11 0 13 -5 7 -17 -5 -10 -8
-38 -8 -62 0 -35 5 -48 27 -67 45 -38 127 -26 127 19 0 13 5 28 12 35 9 9 2
12 -32 11 -25 -1 -37 -3 -27 -6 14 -4 17 -13 15 -36 -4 -39 -33 -47 -69 -18
-20 16 -24 28 -24 71 0 42 4 55 24 71 31 25 38 24 72 -12 l29 -31 0 30 c0 26
-4 30 -37 35 -24 4 -48 1 -67 -8 -35 -18 -45 -12 -28 16 11 18 11 19 -8 9 -11
-5 -29 -14 -40 -20 -24 -12 -40 -13 -22 -1 10 6 9 14 -5 39 -20 36 -33 41 -33
14z m12 -81 c16 -19 15 -20 -14 -26 -22 -5 -27 -10 -17 -16 8 -4 19 -3 28 4
12 10 12 9 0 -10 -16 -27 -22 -28 -39 -8 -10 12 -10 21 0 45 15 35 20 37 42
11z"/>
<path d="M731 1358 c9 -7 14 -18 12 -24 -2 -6 10 -10 31 -10 37 1 39 15 3 17
-12 1 -4 5 18 9 l40 7 -42 2 c-23 0 -50 4 -60 7 -16 5 -16 4 -2 -8z"/>
<path d="M2279 1348 c-19 -35 -32 -45 -51 -40 -12 3 -18 -1 -18 -12 0 -9 7
-16 15 -16 20 0 42 -51 50 -114 l7 -48 45 6 c24 3 49 8 54 12 18 11 8 51 -31
129 -22 44 -40 85 -40 92 0 20 -18 15 -31 -9z m64 -106 c4 -17 2 -22 -8 -18
-10 3 -12 0 -8 -12 4 -13 3 -14 -6 -6 -14 13 -24 62 -16 82 5 13 8 12 19 -4 7
-10 16 -29 19 -42z"/>
<path d="M2678 1349 c-6 -17 -89 -24 -99 -8 -7 11 -14 8 -36 -14 -26 -25 -28
-33 -28 -105 1 -42 5 -113 9 -156 9 -76 8 -79 -10 -72 -10 4 -34 10 -51 13
-26 4 -33 2 -33 -10 0 -9 -7 -20 -16 -25 -12 -7 -13 -11 -5 -17 9 -5 9 -11 -1
-23 -12 -15 -11 -16 5 -3 23 18 34 7 16 -16 -11 -15 -11 -16 1 -5 19 16 31 15
24 -2 -4 -10 2 -13 23 -10 27 3 28 1 30 -44 1 -35 -9 -70 -37 -137 -34 -80
-38 -100 -41 -185 -4 -140 0 -210 11 -210 5 0 7 7 4 15 -5 11 1 15 21 15 19 0
26 4 22 14 -3 8 0 22 8 33 12 16 13 14 9 -22 -3 -22 -6 -54 -7 -72 -3 -39 -17
-56 -17 -20 0 20 -5 25 -20 24 -23 -1 -26 -22 -8 -64 6 -15 10 -36 9 -45 -1
-10 3 -18 9 -18 6 0 10 -7 8 -17 -4 -24 -63 -41 -143 -42 -49 -1 -66 -4 -55
-11 23 -15 106 -12 148 5 33 14 38 14 48 0 6 -8 23 -15 38 -15 29 0 33 19 17
77 -7 23 -5 64 5 130 18 116 19 192 3 240 -11 33 -10 37 17 59 16 13 32 23 36
24 3 0 15 -16 27 -35 11 -19 31 -39 44 -44 14 -5 39 -33 57 -63 39 -64 35 -59
52 -62 7 -1 19 -5 26 -10 7 -4 16 -5 19 -2 4 3 2 6 -3 6 -7 0 -7 23 0 65 l9
66 -38 39 c-22 22 -44 40 -51 40 -7 0 -13 29 -17 83 -4 70 -2 86 14 109 10 15
19 38 19 52 0 16 5 24 13 21 28 -10 40 11 33 59 -6 40 -10 46 -31 46 -21 0
-22 3 -15 36 5 19 11 38 13 41 3 3 -1 22 -8 43 -11 32 -11 39 0 44 7 2 21 -2
32 -9 29 -23 33 -18 33 45 0 56 -2 60 -22 59 -13 0 -17 -3 -10 -6 19 -7 14
-23 -5 -17 -16 5 -16 4 1 -10 18 -14 17 -15 -7 -21 -18 -5 -24 -12 -20 -23 4
-10 3 -14 -2 -10 -4 4 -14 3 -20 -2 -24 -20 -90 0 -134 40 -68 62 -52 110 38
110 30 0 43 5 51 20 6 12 7 20 1 20 -5 0 -11 -5 -13 -11z m12 -452 c0 -24 3
-28 10 -17 5 8 12 11 16 7 5 -4 -2 -17 -13 -29 -14 -13 -21 -16 -20 -7 1 8 -2
15 -8 16 -5 1 -13 10 -17 20 -6 13 -7 10 -4 -10 2 -16 -2 -41 -9 -55 -7 -15
-25 -55 -40 -89 -19 -44 -33 -63 -46 -63 -10 0 -21 4 -24 10 -7 12 11 159 27
217 11 39 13 40 26 22 15 -21 32 -25 32 -8 0 7 8 18 17 24 27 20 53 1 53 -38z"/>
<path d="M828 1333 c7 -3 16 -2 19 1 4 3 -2 6 -13 5 -11 0 -14 -3 -6 -6z"/>
<path d="M2068 1333 c7 -3 16 -2 19 1 4 3 -2 6 -13 5 -11 0 -14 -3 -6 -6z"/>
<path d="M2713 1325 c0 -8 6 -16 14 -19 11 -4 11 -1 3 14 -13 24 -17 25 -17 5z"/>
<path d="M898 1293 c8 -3 12 -28 12 -74 0 -80 19 -109 70 -109 51 0 70 29 70
109 0 58 3 70 18 74 9 3 -3 5 -28 5 -25 0 -38 -2 -30 -5 24 -9 30 -25 30 -80
0 -76 -45 -117 -84 -77 -20 20 -23 150 -3 157 6 3 -6 5 -28 5 -22 0 -34 -2
-27 -5z"/>
<path d="M1103 1289 c23 -14 25 -146 2 -155 -27 -11 -16 -21 20 -20 33 1 52
16 20 16 -12 0 -15 14 -15 65 0 36 2 65 4 65 1 0 27 -34 57 -76 l54 -75 5 86
c4 60 10 89 20 95 11 7 3 9 -25 9 -22 -1 -32 -3 -22 -6 14 -4 17 -16 17 -64 0
-32 -2 -59 -4 -59 -2 0 -25 29 -51 65 -37 53 -51 65 -73 65 -23 -1 -25 -2 -9
-11z"/>
<path d="M1318 1291 c10 -6 13 -30 10 -90 -3 -80 -3 -81 22 -81 19 0 21 3 12
12 -18 18 -15 68 4 75 37 14 70 -41 44 -73 -10 -11 -9 -14 3 -14 40 0 49 66
10 85 -21 11 -21 11 -2 23 25 16 24 48 0 62 -24 12 -122 14 -103 1z m87 -36
c0 -25 -4 -30 -25 -30 -21 0 -26 5 -28 33 -3 31 -2 33 25 30 24 -3 28 -8 28
-33z"/>
<path d="M1501 1279 c6 -13 9 -50 7 -90 -3 -57 -1 -69 12 -69 12 0 14 13 12
81 -3 60 0 84 10 90 8 6 2 9 -20 9 -30 0 -32 -2 -21 -21z"/>
<path d="M1666 1269 c-14 -17 -26 -43 -26 -57 0 -35 35 -92 57 -92 15 0 15 1
-1 13 -11 8 -20 31 -23 61 -5 38 -2 53 16 77 29 39 10 37 -23 -2z"/>
<path d="M1757 1285 c39 -27 43 -114 7 -149 -8 -9 -11 -16 -5 -16 17 0 50 37
57 65 12 49 -25 115 -65 115 -11 0 -9 -4 6 -15z"/>
<path d="M1873 1278 c-29 -33 -36 -63 -23 -103 20 -62 94 -81 142 -38 38 35
30 130 -13 153 -29 16 -32 12 -10 -16 50 -63 8 -170 -58 -149 -46 14 -53 123
-10 158 14 11 17 17 7 17 -8 0 -24 -10 -35 -22z"/>
<path d="M2058 1291 c10 -6 13 -30 10 -90 -3 -75 -2 -81 17 -81 19 0 20 6 17
85 l-3 85 25 0 c67 0 94 -99 40 -147 -19 -17 -21 -23 -9 -23 9 0 27 11 40 25
35 34 34 89 -2 127 -24 25 -34 28 -87 28 -37 0 -56 -4 -48 -9z"/>
<path d="M1605 1140 c-15 -17 -16 -20 -3 -20 9 0 19 7 22 16 10 25 1 27 -19 4z"/>
<path d="M470 982 c0 -5 7 -9 15 -9 8 0 12 4 9 9 -3 4 -9 8 -15 8 -5 0 -9 -4
-9 -8z"/>
<path d="M2375 981 c-3 -5 -1 -12 5 -16 5 -3 10 1 10 9 0 18 -6 21 -15 7z"/>
<path d="M550 970 c0 -5 5 -10 11 -10 5 0 7 5 4 10 -3 6 -8 10 -11 10 -2 0 -4
-4 -4 -10z"/>
<path d="M2345 959 c-4 -6 -5 -12 -2 -15 2 -3 7 2 10 11 7 17 1 20 -8 4z"/>
<path d="M590 950 c8 -5 20 -10 25 -10 6 0 3 5 -5 10 -8 5 -19 10 -25 10 -5 0
-3 -5 5 -10z"/>
<path d="M2265 945 c-25 -12 -26 -14 -5 -9 14 4 29 10 35 15 12 12 5 11 -30
-6z"/>
<path d="M52 398 c-7 -7 -20 -13 -30 -13 -13 0 -18 -10 -20 -41 -3 -34 0 -42
17 -47 17 -4 23 4 40 54 19 58 17 71 -7 47z"/>
<path d="M2800 366 c0 -8 5 -18 10 -21 6 -3 10 3 10 14 0 12 -4 21 -10 21 -5
0 -10 -6 -10 -14z"/>
<path d="M46 249 c5 -8 -1 -10 -20 -7 -37 7 -34 -17 5 -41 34 -21 97 -36 107
-26 3 3 -14 23 -38 45 -44 38 -68 51 -54 29z"/>
<path d="M442 192 c3 -12 3 -21 -1 -20 -3 0 -14 0 -25 -1 -15 -1 -16 -4 -6
-16 17 -21 150 -22 150 -1 0 7 -19 20 -42 28 -24 8 -52 19 -62 23 -16 7 -18 5
-14 -13z"/>
<path d="M275 190 c3 -5 8 -10 11 -10 2 0 4 5 4 10 0 6 -5 10 -11 10 -5 0 -7
-4 -4 -10z"/>
<path d="M2753 152 c-24 -9 -43 -20 -43 -24 0 -9 90 18 103 31 15 15 -8 12
-60 -7z"/>
<path d="M326 145 c4 -8 16 -15 29 -15 13 0 25 7 29 15 4 12 -3 15 -29 15 -26
0 -33 -3 -29 -15z"/>
</g>
</svg>
