<?xml version="1.0" standalone="no"?>
<!DOCTYPE svg PUBLIC "-//W3C//DTD SVG 20010904//EN"
 "http://www.w3.org/TR/2001/REC-SVG-20010904/DTD/svg10.dtd">
<svg version="1.0" xmlns="http://www.w3.org/2000/svg"
 width="1000.000000pt" height="641.000000pt" viewBox="0 0 1000.000000 641.000000"
 preserveAspectRatio="xMidYMid meet">

<g transform="translate(0.000000,641.000000) scale(0.100000,-0.100000)"
fill="#000000" stroke="none">
<path d="M0 3205 l0 -3205 5000 0 5000 0 0 2376 c0 2260 -1 2376 -17 2363 -10
-8 -24 -20 -31 -26 -7 -7 -18 -13 -24 -13 -20 0 0 26 35 45 l37 20 0 823 0
822 -5000 0 -5000 0 0 -3205z m3085 2704 c-9 -17 -19 -29 -22 -26 -5 5 25 57
33 57 3 0 -3 -14 -11 -31z m905 27 c0 -3 -4 -8 -10 -11 -5 -3 -10 -1 -10 4 0
6 5 11 10 11 6 0 10 -2 10 -4z m10 -30 c0 -3 -4 -8 -10 -11 -5 -3 -10 -1 -10
4 0 6 5 11 10 11 6 0 10 -2 10 -4z m3980 -40 c0 -3 -4 -8 -10 -11 -5 -3 -10
-1 -10 4 0 6 5 11 10 11 6 0 10 -2 10 -4z m117 -13 c3 -7 -7 -15 -22 -19 -31
-8 -38 -3 -29 20 7 19 45 18 51 -1z m-4237 -18 c0 -7 6 -16 13 -18 6 -3 7 -6
1 -6 -18 -2 -47 26 -40 38 9 14 26 5 26 -14z m-803 -382 c-3 -10 -5 -4 -5 12
0 17 2 24 5 18 2 -7 2 -21 0 -30z m-1065 -28 c0 -5 -5 -11 -11 -13 -6 -2 -11
4 -11 13 0 9 5 15 11 13 6 -2 11 -8 11 -13z m5228 -29 c0 -8 -7 -19 -15 -26
-12 -10 -16 -9 -21 4 -7 18 13 49 27 40 5 -3 9 -11 9 -18z m144 5 c3 -5 -6
-11 -21 -14 -26 -5 -26 -4 -8 9 22 17 22 17 29 5z m-413 -294 c-9 -9 -14 -8
-21 3 -14 22 -12 28 8 32 20 4 29 -19 13 -35z m-1650 -174 c13 -16 12 -17 -3
-4 -10 7 -18 15 -18 17 0 8 8 3 21 -13z m-3400 -276 c-1 -12 -15 -9 -19 4 -3
6 1 10 8 8 6 -3 11 -8 11 -12z m3256 -19 c-3 -8 -6 -5 -6 6 -1 11 2 17 5 13 3
-3 4 -12 1 -19z m-122 -108 c3 -5 1 -10 -4 -10 -6 0 -11 5 -11 10 0 6 2 10 4
10 3 0 8 -4 11 -10z m1458 -68 c11 -12 15 -28 11 -47 -3 -17 -7 -37 -8 -45 -2
-8 -6 -14 -9 -12 -4 1 -11 2 -16 2 -5 0 -9 27 -9 60 1 64 5 70 31 42z m-76
-24 c-3 -7 -5 -2 -5 12 0 14 2 19 5 13 2 -7 2 -19 0 -25z m-252 -8 c3 -5 -1
-10 -10 -10 -9 0 -13 5 -10 10 3 6 8 10 10 10 2 0 7 -4 10 -10z m85 -15 c0 -8
-4 -15 -9 -15 -13 0 -22 16 -14 24 11 11 23 6 23 -9z m386 -53 c-12 -12 -18 8
-10 35 l8 28 4 -28 c2 -16 1 -31 -2 -35z m67 2 c-4 -10 -10 -11 -23 -4 -13 7
-20 6 -23 -3 -8 -18 -8 28 -1 48 6 14 9 14 30 -6 12 -11 20 -27 17 -35z m-413
26 c0 -5 -5 -10 -11 -10 -5 0 -7 5 -4 10 3 6 8 10 11 10 2 0 4 -4 4 -10z
m-3513 -32 c-3 -7 -5 -2 -5 12 0 14 2 19 5 13 2 -7 2 -19 0 -25z m3454 9 c-10
-9 -11 -8 -5 6 3 10 9 15 12 12 3 -3 0 -11 -7 -18z m519 -11 c0 -6 5 -4 10 4
8 12 10 9 10 -12 0 -21 -4 -25 -20 -21 -24 7 -44 29 -36 42 8 13 36 3 36 -13z
m-3935 5 c3 -5 1 -12 -5 -16 -5 -3 -10 1 -10 9 0 18 6 21 15 7z m3595 -6 c0
-9 -6 -12 -15 -9 -8 4 -12 10 -9 15 8 14 24 10 24 -6z m74 -51 c-3 -62 -4 -65
-13 -59 -15 8 -12 107 2 102 7 -2 11 -21 11 -43z m333 -16 c-3 -8 -6 -5 -6 6
-1 11 2 17 5 13 3 -3 4 -12 1 -19z m59 -35 c-4 -4 -11 -1 -16 7 -16 25 -11 35
7 17 9 -9 13 -20 9 -24z m-106 1 c0 -8 -4 -14 -10 -14 -5 0 -10 9 -10 21 0 11
5 17 10 14 6 -3 10 -13 10 -21z m145 -13 c3 -5 1 -12 -5 -16 -5 -3 -10 1 -10
9 0 18 6 21 15 7z m-95 -41 c0 -16 -4 -30 -10 -30 -11 0 -14 43 -3 53 11 12
13 8 13 -23z m135 10 c3 -5 1 -10 -4 -10 -6 0 -11 5 -11 10 0 6 2 10 4 10 3 0
8 -4 11 -10z m-198 -45 c9 -25 -4 -29 -17 -6 -7 15 -7 21 0 21 6 0 13 -7 17
-15z m248 5 c3 -5 1 -10 -4 -10 -6 0 -11 5 -11 10 0 6 2 10 4 10 3 0 8 -4 11
-10z m-649 -55 c-11 -8 -25 -15 -30 -15 -6 1 0 7 14 15 32 19 40 18 16 0z
m-1606 -345 c0 -5 -2 -10 -4 -10 -3 0 -8 5 -11 10 -3 6 -1 10 4 10 6 0 11 -4
11 -10z m4310 -14 c0 -3 -4 -8 -10 -11 -5 -3 -10 -1 -10 4 0 6 5 11 10 11 6 0
10 -2 10 -4z m-8834 -72 c-4 -14 -10 -23 -15 -20 -4 3 -8 -8 -9 -25 -1 -37 -8
-47 -14 -22 -3 10 0 33 4 52 7 26 12 31 19 20 6 -10 9 -6 10 16 0 17 3 24 6
17 3 -7 2 -24 -1 -38z m8424 36 c0 -5 -4 -10 -10 -10 -5 0 -10 5 -10 10 0 6 5
10 10 10 6 0 10 -4 10 -10z m-5070 -20 c-6 -11 -13 -20 -16 -20 -2 0 0 9 6 20
6 11 13 20 16 20 2 0 0 -9 -6 -20z m4507 -16 c-3 -3 -12 -4 -19 -1 -8 3 -5 6
6 6 11 1 17 -2 13 -5z m113 -24 c0 -5 -2 -10 -4 -10 -3 0 -8 5 -11 10 -3 6 -1
10 4 10 6 0 11 -4 11 -10z m40 -10 c0 -5 -2 -10 -4 -10 -3 0 -8 5 -11 10 -3 6
-1 10 4 10 6 0 11 -4 11 -10z m390 -50 c0 -5 -2 -10 -4 -10 -3 0 -8 5 -11 10
-3 6 -1 10 4 10 6 0 11 -4 11 -10z m-4393 -92 c-3 -8 -6 -5 -6 6 -1 11 2 17 5
13 3 -3 4 -12 1 -19z m4173 -180 c0 -4 -9 -8 -21 -8 -11 0 -18 4 -15 8 3 5 12
9 21 9 8 0 15 -4 15 -9z m-5940 -47 c0 -5 -7 -12 -16 -15 -24 -9 -28 -7 -14 9
14 17 30 20 30 6z m7190 -25 c0 -3 -4 -8 -10 -11 -5 -3 -10 -1 -10 4 0 6 5 11
10 11 6 0 10 -2 10 -4z m-3803 -133 c-8 -7 -37 9 -31 19 3 5 12 4 20 -3 8 -6
13 -14 11 -16z m-50 11 c-3 -3 -12 -4 -19 -1 -8 3 -5 6 6 6 11 1 17 -2 13 -5z
m3733 -14 c0 -5 -2 -10 -4 -10 -3 0 -8 5 -11 10 -3 6 -1 10 4 10 6 0 11 -4 11
-10z m-2275 -38 c-6 -7 -35 18 -35 31 0 5 9 2 20 -8 11 -10 18 -20 15 -23z
m2242 6 c-3 -8 -6 -5 -6 6 -1 11 2 17 5 13 3 -3 4 -12 1 -19z m-67 -68 c0 -5
-5 -10 -11 -10 -5 0 -7 5 -4 10 3 6 8 10 11 10 2 0 4 -4 4 -10z m-90 -105 c-7
-9 -15 -13 -17 -11 -6 6 20 36 26 30 2 -2 -2 -10 -9 -19z m-270 -34 c0 -13
-30 -22 -43 -14 -7 4 -2 10 13 14 14 4 26 7 28 8 1 1 2 -3 2 -8z m30 -1 c0 -5
-2 -10 -4 -10 -3 0 -8 5 -11 10 -3 6 -1 10 4 10 6 0 11 -4 11 -10z m191 -8
c-12 -22 -41 -48 -41 -36 0 8 40 54 47 54 2 0 -1 -8 -6 -18z m-1775 -27 c-3
-9 -11 -13 -16 -10 -8 5 -7 11 1 21 14 18 24 11 15 -11z m-388 -65 c-7 -11
-17 -20 -22 -20 -5 0 -1 9 9 20 10 11 20 20 22 20 2 0 -2 -9 -9 -20z m2172
-20 c0 -5 -5 -10 -11 -10 -5 0 -7 5 -4 10 3 6 8 10 11 10 2 0 4 -4 4 -10z
m-1136 -6 c23 -9 20 -23 -4 -17 -11 3 -20 9 -20 14 0 11 3 11 24 3z m176 -29
c19 -19 32 -35 29 -35 -3 0 -20 16 -39 35 -19 19 -32 35 -29 35 3 0 20 -16 39
-35z m210 5 c0 -20 -16 -17 -27 6 -10 21 -9 23 8 13 10 -5 19 -14 19 -19z
m619 23 c0 -11 -59 -57 -59 -47 0 4 10 18 22 31 21 23 39 30 37 16z m-1562 -9
c-3 -3 -12 -4 -19 -1 -8 3 -5 6 6 6 11 1 17 -2 13 -5z m1743 -9 c0 -8 -7 -15
-15 -15 -26 0 -18 20 13 29 1 1 2 -6 2 -14z m-1490 -5 c0 -5 -4 -10 -10 -10
-5 0 -10 5 -10 10 0 6 5 10 10 10 6 0 10 -4 10 -10z m576 -10 c0 -12 -4 -16
-9 -11 -5 5 -6 14 -3 20 10 15 12 14 12 -9z m-3496 -5 c-7 -8 -16 -12 -21 -9
-13 8 -1 24 18 24 13 0 13 -3 3 -15z m330 5 c0 -5 -4 -10 -10 -10 -5 0 -10 5
-10 10 0 6 5 10 10 10 6 0 10 -4 10 -10z m154 -6 c3 -8 2 -12 -4 -9 -6 3 -10
10 -10 16 0 14 7 11 14 -7z m254 -9 c-3 -3 -9 2 -12 12 -6 14 -5 15 5 6 7 -7
10 -15 7 -18z m-1565 8 c-7 -2 -21 -2 -30 0 -10 3 -4 5 12 5 17 0 24 -2 18 -5z
m-2633 -13 c0 -5 -5 -10 -11 -10 -5 0 -7 5 -4 10 3 6 8 10 11 10 2 0 4 -4 4
-10z m2130 0 c0 -5 -5 -10 -11 -10 -5 0 -7 5 -4 10 3 6 8 10 11 10 2 0 4 -4 4
-10z m60 -19 c-6 -12 -17 -21 -24 -21 -20 0 -8 38 13 43 23 5 24 2 11 -22z
m115 1 c2 -30 -12 -28 -18 3 -2 15 0 24 6 22 6 -2 11 -13 12 -25z m5311 1
c-10 -10 -19 5 -10 18 6 11 8 11 12 0 2 -7 1 -15 -2 -18z m-8351 7 c15 -7 16
-9 4 -9 -11 -1 -19 -14 -23 -41 -3 -22 -10 -40 -14 -40 -12 0 -12 64 1 72 8 5
6 8 -6 8 -10 0 -15 5 -12 10 7 12 23 12 50 0z m79 4 c17 -7 10 -34 -9 -34 -14
0 -27 25 -18 34 8 7 8 7 27 0z m67 -21 c0 -16 2 -38 5 -51 2 -14 0 -21 -6 -17
-5 3 -10 15 -10 26 0 10 -7 19 -15 19 -21 0 -19 20 3 21 10 0 12 3 5 6 -18 7
-16 23 2 23 10 0 15 -10 16 -27z m-814 -3 c-1 -11 -2 -20 -4 -20 -1 0 -7 9
-13 20 -8 16 -8 20 4 20 9 0 14 -8 13 -20z m38 -20 c0 -50 -19 -47 -23 3 -1
25 2 37 10 37 8 0 13 -14 13 -40z m75 26 c0 -9 -7 -12 -21 -9 -12 4 -25 0 -30
-8 -6 -11 -9 -8 -9 9 0 18 6 22 30 22 19 0 30 -5 30 -14z m313 -6 c-3 -11 -9
-17 -14 -14 -14 8 -10 34 5 34 9 0 12 -7 9 -20z m-213 -11 c0 -11 -4 -17 -10
-14 -5 3 -10 13 -10 21 0 8 5 14 10 14 6 0 10 -9 10 -21z m950 2 c0 -10 -8
-25 -17 -32 -15 -12 -16 -12 -10 4 4 10 7 25 7 33 0 8 5 14 10 14 6 0 10 -8
10 -19z m3710 -14 c0 -3 -7 -7 -15 -11 -11 -4 -15 2 -15 20 0 23 2 24 15 10 8
-8 15 -17 15 -19z m1110 23 c0 -5 -4 -10 -10 -10 -5 0 -10 5 -10 10 0 6 5 10
10 10 6 0 10 -4 10 -10z m-5045 -9 c3 -5 1 -12 -5 -16 -5 -3 -10 1 -10 9 0 18
6 21 15 7z m-35 -25 c0 -9 -7 -12 -20 -9 -11 3 -17 9 -14 14 8 14 34 10 34 -5z
m105 3 c11 -17 -1 -21 -15 -4 -8 9 -8 15 -2 15 6 0 14 -5 17 -11z m3852 -66
c-3 -10 -5 -2 -5 17 0 19 2 27 5 18 2 -10 2 -26 0 -35z m-4793 22 c3 -8 1 -15
-4 -15 -6 0 -10 7 -10 15 0 8 2 15 4 15 2 0 6 -7 10 -15z m704 6 c10 -6 7 -10
-12 -13 -18 -4 -26 -1 -26 8 0 16 18 18 38 5z m267 -21 c3 -6 -1 -7 -9 -4 -18
7 -21 14 -7 14 6 0 13 -4 16 -10z m30 -40 c3 -5 1 -10 -4 -10 -6 0 -11 5 -11
10 0 6 2 10 4 10 3 0 8 -4 11 -10z m5199 -6 c3 -8 2 -12 -4 -9 -6 3 -10 10
-10 16 0 14 7 11 14 -7z m-5234 -4 c0 -5 -5 -10 -11 -10 -5 0 -7 5 -4 10 3 6
8 10 11 10 2 0 4 -4 4 -10z m135 -20 c3 -5 2 -10 -4 -10 -5 0 -13 5 -16 10 -3
6 -2 10 4 10 5 0 13 -4 16 -10z m3735 -55 c-1 -5 -9 0 -20 13 l-18 22 -11 -52
-10 -53 5 60 c4 33 8 64 11 68 6 10 43 -42 43 -58z m4860 45 c0 -5 -7 -10 -15
-10 -8 0 -15 5 -15 10 0 6 7 10 15 10 8 0 15 -4 15 -10z m-9560 -20 c0 -5 -2
-10 -4 -10 -3 0 -8 5 -11 10 -3 6 -1 10 4 10 6 0 11 -4 11 -10z m4758 -25 c-3
-3 -9 2 -12 12 -6 14 -5 15 5 6 7 -7 10 -15 7 -18z m-4508 -50 c0 -8 -3 -16
-7 -18 -5 -3 -8 5 -8 18 0 13 3 21 8 18 4 -2 7 -10 7 -18z m4484 -14 c-6 -6
-24 19 -24 34 1 6 7 1 15 -9 8 -11 12 -22 9 -25z m76 -3 c0 -21 -3 -29 -10
-22 -5 5 -7 19 -4 32 9 31 14 27 14 -10z m1900 -30 c0 -5 -5 -6 -11 -2 -9 5
-10 -9 -5 -52 7 -66 -7 -55 -18 13 -8 52 1 78 20 62 8 -6 14 -16 14 -21z
m-1920 -45 c12 -26 21 -62 19 -82 -1 -20 -1 -48 0 -64 1 -27 1 -27 59 -21 72
8 65 -2 -10 -14 l-56 -9 -6 42 c-4 23 -4 49 0 58 3 9 -6 38 -19 64 -14 26 -29
59 -33 73 -6 22 -5 23 9 12 8 -7 25 -34 37 -59z m-2566 8 c-4 -17 -9 -30 -11
-27 -3 2 -2 19 2 36 4 17 9 30 11 27 2 -2 1 -18 -2 -36z m-470 4 c-4 -8 -8
-15 -10 -15 -2 0 -4 7 -4 15 0 8 4 15 10 15 5 0 7 -7 4 -15z m5596 -25 c0 -5
-9 -10 -20 -10 -11 0 -20 5 -20 10 0 6 9 10 20 10 11 0 20 -4 20 -10z m-2265
-60 c-3 -5 -10 -10 -16 -10 -5 0 -9 5 -9 10 0 6 7 10 16 10 8 0 12 -4 9 -10z
m830 0 c3 -5 1 -10 -4 -10 -6 0 -11 5 -11 10 0 6 2 10 4 10 3 0 8 -4 11 -10z
m-3705 -28 c0 -9 -5 -24 -10 -32 -7 -11 -10 -5 -10 23 0 23 4 36 10 32 6 -3
10 -14 10 -23z m2954 -7 c3 -8 1 -15 -3 -15 -5 0 -11 7 -15 15 -3 8 -1 15 3
15 5 0 11 -7 15 -15z m171 -22 c-7 -17 -8 -17 -15 2 -9 24 -2 41 12 27 6 -6 7
-19 3 -29z m-1085 17 c0 -5 -2 -10 -4 -10 -3 0 -8 5 -11 10 -3 6 -1 10 4 10 6
0 11 -4 11 -10z m842 -21 c-31 -12 -88 -22 -80 -13 8 7 64 22 88 22 8 1 4 -3
-8 -9z m-3652 -9 c0 -5 -4 -10 -10 -10 -5 0 -10 5 -10 10 0 6 5 10 10 10 6 0
10 -4 10 -10z m6460 0 c0 -5 -5 -10 -11 -10 -5 0 -7 5 -4 10 3 6 8 10 11 10 2
0 4 -4 4 -10z m-2900 -12 c0 -6 -3 -9 -6 -6 -3 4 -19 2 -35 -2 -16 -5 -29 -5
-29 0 0 8 22 15 58 19 6 0 12 -4 12 -11z m-3730 -2 c0 -3 -4 -8 -10 -11 -5 -3
-10 -1 -10 4 0 6 5 11 10 11 6 0 10 -2 10 -4z m927 -28 c-3 -7 -5 -2 -5 12 0
14 2 19 5 13 2 -7 2 -19 0 -25z m3135 -8 c-6 -41 -12 -38 -12 6 0 19 4 33 8
30 5 -3 7 -19 4 -36z m72 -42 c-12 -19 -20 -5 -15 30 l4 37 8 -29 c5 -16 6
-33 3 -38z m351 52 c3 -5 -1 -10 -9 -10 -9 0 -16 5 -16 10 0 6 4 10 9 10 6 0
13 -4 16 -10z m-4428 -22 c-3 -8 -6 -5 -6 6 -1 11 2 17 5 13 3 -3 4 -12 1 -19z
m4460 -8 c-1 -16 -5 -30 -9 -30 -9 0 -10 8 -2 38 9 31 14 28 11 -8z m204 -3
c-8 -8 -11 -7 -11 4 0 20 13 34 18 19 3 -7 -1 -17 -7 -23z m-143 2 c10 -14 10
-18 -2 -22 -9 -4 -18 -1 -22 5 -5 7 -2 8 6 3 9 -6 10 -2 5 16 -4 13 -6 22 -3
19 2 -3 9 -12 16 -21z m-238 1 c0 -5 -4 -10 -10 -10 -5 0 -10 5 -10 10 0 6 5
10 10 10 6 0 10 -4 10 -10z m140 -10 c0 -19 -11 -26 -23 -14 -8 8 3 34 14 34
5 0 9 -9 9 -20z m-3557 -19 c3 -14 1 -18 -9 -14 -15 6 -18 16 -7 26 9 10 10 9
16 -12z m3717 9 c0 -5 -10 -10 -22 -9 -22 0 -22 1 -3 9 11 5 21 9 23 9 1 1 2
-3 2 -9z m-290 -4 c0 -3 -4 -8 -10 -11 -5 -3 -10 -1 -10 4 0 6 5 11 10 11 6 0
10 -2 10 -4z m986 -44 c-18 -18 -29 -12 -20 11 3 9 12 13 21 10 13 -5 13 -8
-1 -21z m-2229 -14 c-3 -7 -5 -2 -5 12 0 14 2 19 5 13 2 -7 2 -19 0 -25z m691
-11 c2 -21 -1 -37 -7 -37 -6 0 -11 8 -11 18 0 15 -9 17 -77 15 -81 -3 -130 3
-119 14 3 4 28 8 54 9 55 2 124 12 131 19 13 13 26 -5 29 -38z m262 33 c0 -5
-4 -10 -10 -10 -5 0 -10 5 -10 10 0 6 5 10 10 10 6 0 10 -4 10 -10z m127 -12
c-3 -8 -6 -5 -6 6 -1 11 2 17 5 13 3 -3 4 -12 1 -19z m1102 -3 c-17 -17 -79
-28 -79 -14 0 5 12 11 28 15 15 3 32 7 37 9 23 8 28 4 14 -10z m-2253 -21 c-4
-9 -9 -15 -11 -12 -3 3 -3 13 1 22 4 9 9 15 11 12 3 -3 3 -13 -1 -22z m451 12
c-3 -7 -1 -18 5 -24 11 -11 3 -32 -12 -32 -6 0 -9 10 -7 22 2 19 -3 23 -25 22
-15 -1 -25 3 -22 8 3 5 12 7 18 5 7 -3 19 -1 27 4 19 12 22 11 16 -5z m533 4
c0 -5 -2 -10 -4 -10 -3 0 -8 5 -11 10 -3 6 -1 10 4 10 6 0 11 -4 11 -10z m320
-44 c0 -30 -4 -58 -10 -61 -6 -3 -10 4 -10 17 0 13 -5 29 -10 34 -7 7 -8 19
-1 37 17 44 31 31 31 -27z m127 7 c-3 -10 -5 -2 -5 17 0 19 2 27 5 18 2 -10 2
-26 0 -35z m-3547 33 c0 -3 -4 -8 -10 -11 -5 -3 -10 -1 -10 4 0 6 5 11 10 11
6 0 10 -2 10 -4z m1940 -11 c10 -12 10 -15 -4 -15 -9 0 -16 7 -16 15 0 8 2 15
4 15 2 0 9 -7 16 -15z m480 5 c0 -5 -4 -10 -10 -10 -5 0 -10 5 -10 10 0 6 5
10 10 10 6 0 10 -4 10 -10z m773 4 c9 -9 -19 -34 -37 -34 -18 0 -19 2 -10 24
6 16 35 22 47 10z m67 -15 c0 -5 -4 -9 -8 -9 -5 0 -9 7 -9 15 0 8 4 12 9 9 4
-3 8 -9 8 -15z m-640 -11 c0 -19 -2 -20 -10 -8 -13 19 -13 30 0 30 6 0 10 -10
10 -22z m62 -3 c0 -5 -5 -11 -11 -13 -6 -2 -11 4 -11 13 0 9 5 15 11 13 6 -2
11 -8 11 -13z m2558 5 c0 -5 -4 -10 -10 -10 -5 0 -10 -7 -10 -15 0 -8 -7 -15
-15 -15 -8 0 -15 -4 -15 -10 0 -5 -7 -10 -15 -10 -29 0 -16 39 18 54 40 18 47
19 47 6z m-3520 -10 c0 -5 -4 -10 -10 -10 -5 0 -10 5 -10 10 0 6 5 10 10 10 6
0 10 -4 10 -10z m120 6 c0 -11 -19 -15 -25 -6 -3 5 1 10 9 10 9 0 16 -2 16 -4z
m580 -18 c0 -16 -3 -19 -11 -11 -6 6 -8 16 -5 22 11 17 16 13 16 -11z m56 -5
c-10 -10 -19 5 -10 18 6 11 8 11 12 0 2 -7 1 -15 -2 -18z m-156 -9 c0 -8 -4
-12 -10 -9 -5 3 -10 13 -10 21 0 8 5 12 10 9 6 -3 10 -13 10 -21z m-843 10
c-3 -3 -12 -4 -19 -1 -8 3 -5 6 6 6 11 1 17 -2 13 -5z m394 -17 c-10 -9 -11
-8 -5 6 3 10 9 15 12 12 3 -3 0 -11 -7 -18z m3894 13 c-3 -5 -14 -10 -23 -9
-14 0 -13 2 3 9 27 11 27 11 20 0z m-4770 -20 c-3 -5 -18 -10 -33 -10 -21 0
-24 2 -12 10 20 13 53 13 45 0z m2395 -10 c0 -5 -5 -10 -11 -10 -5 0 -7 5 -4
10 3 6 8 10 11 10 2 0 4 -4 4 -10z m3700 0 c0 -5 -4 -10 -10 -10 -5 0 -10 5
-10 10 0 6 5 10 10 10 6 0 10 -4 10 -10z m-6245 -9 c-39 -16 -85 -23 -85 -12
0 11 28 18 75 19 25 1 27 -1 10 -7z m2955 -11 c0 -5 -4 -10 -10 -10 -5 0 -10
5 -10 10 0 6 5 10 10 10 6 0 10 -4 10 -10z m-3210 -7 c0 -5 -5 -15 -10 -23 -8
-12 -10 -11 -10 8 0 12 5 22 10 22 6 0 10 -3 10 -7z m2817 -25 c-3 -8 -6 -5
-6 6 -1 11 2 17 5 13 3 -3 4 -12 1 -19z m-1710 -14 c-3 -3 -12 -4 -19 -1 -8 3
-5 6 6 6 11 1 17 -2 13 -5z m2743 -18 c0 -3 -4 -8 -10 -11 -5 -3 -10 -1 -10 4
0 6 5 11 10 11 6 0 10 -2 10 -4z m-1275 -43 c-4 -10 -14 -40 -21 -68 -14 -50
-14 -50 -9 -8 3 23 10 54 17 68 13 28 24 35 13 8z m1267 -23 c-4 -32 -14 -33
-18 -3 -3 19 3 33 15 33 4 0 6 -14 3 -30z m-4312 10 c0 -5 -5 -10 -11 -10 -5
0 -7 5 -4 10 3 6 8 10 11 10 2 0 4 -4 4 -10z m440 -25 c0 -8 -7 -15 -15 -15
-8 0 -15 7 -15 15 0 8 7 15 15 15 8 0 15 -7 15 -15z m3927 -17 c-3 -8 -6 -5
-6 6 -1 11 2 17 5 13 3 -3 4 -12 1 -19z m-3880 -40 c-3 -7 -5 -2 -5 12 0 14 2
19 5 13 2 -7 2 -19 0 -25z m3818 22 c3 -5 1 -10 -4 -10 -6 0 -11 5 -11 10 0 6
2 10 4 10 3 0 8 -4 11 -10z m952 4 c-3 -3 -22 -10 -43 -14 -43 -10 -73 0 -34
11 32 9 85 11 77 3z m-3657 -19 c0 -8 -4 -15 -10 -15 -5 0 -7 7 -4 15 4 8 8
15 10 15 2 0 4 -7 4 -15z m-770 -10 c-7 -8 -18 -15 -24 -15 -6 0 -2 7 8 15 25
19 32 19 16 0z m2449 -33 c1 -7 -3 -10 -9 -7 -5 3 -10 18 -9 33 0 24 1 25 9 7
5 -11 9 -26 9 -33z m-3506 1 c-6 -41 -10 -49 -19 -41 -8 8 7 78 16 78 5 0 6
-17 3 -37z m5267 -27 c0 -9 -30 -14 -35 -6 -4 6 3 10 14 10 12 0 21 -2 21 -4z
m-3762 -147 c-3 -20 -5 -19 -9 9 -3 20 -2 29 4 23 5 -5 7 -19 5 -32z m-1831
-61 c-3 -8 -6 -5 -6 6 -1 11 2 17 5 13 3 -3 4 -12 1 -19z m1583 -25 c0 -5 -4
-15 -10 -23 -11 -18 -25 -7 -17 15 6 15 27 21 27 8z m-100 -37 c0 -2 -9 -6
-20 -9 -11 -3 -20 -1 -20 4 0 5 9 9 20 9 11 0 20 -2 20 -4z m-1781 -80 c-9 -8
-10 -7 -5 7 3 10 7 24 7 30 1 7 3 4 6 -7 3 -10 -1 -23 -8 -30z m2558 -88 c-3
-8 -6 -5 -6 6 -1 11 2 17 5 13 3 -3 4 -12 1 -19z m-1962 -18 c3 -5 1 -10 -4
-10 -6 0 -11 5 -11 10 0 6 2 10 4 10 3 0 8 -4 11 -10z m2805 -10 c0 -5 -2 -10
-4 -10 -3 0 -8 5 -11 10 -3 6 -1 10 4 10 6 0 11 -4 11 -10z m-1003 -22 c-3 -8
-6 -5 -6 6 -1 11 2 17 5 13 3 -3 4 -12 1 -19z m-2007 -22 c0 -18 2 -49 5 -67
l5 -34 -11 30 c-15 44 -20 105 -9 105 6 0 10 -15 10 -34z m48 -211 c0 -16 -2
-15 -8 5 -11 34 -11 60 0 35 5 -11 8 -29 8 -40z m2589 -181 c-3 -3 -12 -4 -19
-1 -8 3 -5 6 6 6 11 1 17 -2 13 -5z"/>
</g>
</svg>
